<svg width="36" height="36" viewBox="0 0 36 36" fill="none" xmlns="http://www.w3.org/2000/svg">
<path d="M18 33.75C13.8228 33.75 9.81677 32.0906 6.86307 29.1369C3.90937 26.1832 2.25 22.1772 2.25 18C2.25 13.8228 3.90937 9.81677 6.86307 6.86307C9.81677 3.90937 13.8228 2.25 18 2.25C22.1772 2.25 26.1832 3.90937 29.1369 6.86307C32.0906 9.81677 33.75 13.8228 33.75 18C33.75 22.1772 32.0906 26.1832 29.1369 29.1369C26.1832 32.0906 22.1772 33.75 18 33.75ZM18 36C22.7739 36 27.3523 34.1036 30.7279 30.7279C34.1036 27.3523 36 22.7739 36 18C36 13.2261 34.1036 8.64773 30.7279 5.27208C27.3523 1.89642 22.7739 0 18 0C13.2261 0 8.64773 1.89642 5.27208 5.27208C1.89642 8.64773 0 13.2261 0 18C0 22.7739 1.89642 27.3523 5.27208 30.7279C8.64773 34.1036 13.2261 36 18 36Z" fill="black"/>
<path d="M11.8237 13.0185C11.8206 13.0912 11.8325 13.1637 11.8584 13.2316C11.8844 13.2995 11.924 13.3614 11.9748 13.4135C12.0256 13.4655 12.0865 13.5067 12.1538 13.5343C12.221 13.5619 12.2933 13.5755 12.366 13.5743H14.2222C14.5327 13.5743 14.7802 13.32 14.8207 13.0118C15.0232 11.5357 16.0357 10.4603 17.8402 10.4603C19.3837 10.4603 20.7967 11.232 20.7967 13.0882C20.7967 14.517 19.9552 15.174 18.6255 16.173C17.1112 17.2733 15.912 18.558 15.9975 20.6438L16.0042 21.132C16.0066 21.2796 16.0669 21.4204 16.1721 21.5239C16.2774 21.6275 16.4191 21.6855 16.5667 21.6855H18.3915C18.5407 21.6855 18.6837 21.6262 18.7892 21.5207C18.8947 21.4153 18.954 21.2722 18.954 21.123V20.8868C18.954 19.2712 19.5682 18.801 21.2265 17.5433C22.5967 16.5015 24.0255 15.345 24.0255 12.9173C24.0255 9.5175 21.1545 7.875 18.0112 7.875C15.1605 7.875 12.0375 9.2025 11.8237 13.0185ZM15.327 25.9852C15.327 27.1845 16.2832 28.071 17.5995 28.071C18.9697 28.071 19.9125 27.1845 19.9125 25.9852C19.9125 24.7432 18.9675 23.8703 17.5972 23.8703C16.2832 23.8703 15.327 24.7432 15.327 25.9852Z" fill="black"/>
</svg>
