<svg width="46" height="46" viewBox="0 0 46 46" fill="none" xmlns="http://www.w3.org/2000/svg">
<path d="M23 0C10.2974 0 0 10.2974 0 23C0 35.7026 10.2974 46 23 46C35.7026 46 46 35.7026 46 23C46 10.2974 35.7026 0 23 0ZM24.5779 9.96705C30.7316 9.96705 35.7185 14.9567 35.7185 21.1105C35.7185 27.2642 30.7316 32.2511 24.5779 32.2511C22.7156 32.2511 20.9604 31.7955 19.4175 30.9877C19.4191 30.9948 19.4215 31.003 19.4231 31.0101L14.3975 36.033L10.2815 31.9142L15.1274 27.0654C15.1355 27.0618 15.1447 27.0605 15.1527 27.057C14.0645 25.3361 13.4345 23.297 13.4345 21.1105C13.4345 14.9567 18.4241 9.96705 24.5779 9.96705ZM24.5779 14.9169C21.158 14.9169 18.3843 17.6906 18.3843 21.1105C18.3843 24.5303 21.158 27.3013 24.5779 27.3013C27.9977 27.3013 30.7687 24.5303 30.7687 21.1105C30.7687 17.6906 27.9977 14.9169 24.5779 14.9169Z" fill="black"/>
</svg>
