<svg width="52" height="52" viewBox="0 0 52 52" fill="none" xmlns="http://www.w3.org/2000/svg">
<path d="M26 48.75C38.5645 48.75 48.75 38.5645 48.75 26C48.75 13.4355 38.5645 3.25 26 3.25C13.4355 3.25 3.25 13.4355 3.25 26C3.25 38.5645 13.4355 48.75 26 48.75Z" fill="#2196F3"/>
<path d="M23.8335 23.8333H28.1668V35.75H23.8335V23.8333Z" fill="white"/>
<path d="M25.9998 20.5833C27.4956 20.5833 28.7082 19.3708 28.7082 17.875C28.7082 16.3792 27.4956 15.1667 25.9998 15.1667C24.5041 15.1667 23.2915 16.3792 23.2915 17.875C23.2915 19.3708 24.5041 20.5833 25.9998 20.5833Z" fill="white"/>
</svg>
