<svg width="49" height="45" viewBox="0 0 49 45" fill="none" xmlns="http://www.w3.org/2000/svg">
<path d="M35.8878 2C30.2398 2 27.3982 4.39754 24.5918 7.55951C21.7855 4.39754 18.9439 2 13.2959 2C7.64796 2 2 5.70923 2 16.8282C2 22.3878 7.64796 33.5068 24.5918 42.7755C41.5357 33.5068 47.1837 22.3878 47.1837 16.8282C47.1837 5.70923 41.5357 2 35.8878 2ZM24.5918 38.5016C9.20997 29.5196 5.76825 19.886 5.76825 16.8282C5.76825 11.7552 7.07434 5.70923 13.2959 5.70923C17.2495 5.70923 19.1733 7.09042 21.759 10.0005L24.5918 13.119L27.4246 10.0005C30.0103 7.09042 31.9342 5.70923 35.8878 5.70923C42.1093 5.70923 43.4154 11.7552 43.4154 16.8282C43.4154 19.886 39.9737 29.5196 24.5918 38.5016Z" fill="#FF1B1B" stroke="#FF0000" stroke-width="2.5"/>
</svg>
