<svg width="90" height="117" viewBox="0 0 90 117" fill="none" xmlns="http://www.w3.org/2000/svg">
<g filter="url(#filter0_d_977_409)">
<path d="M46.8592 50.5038C40.3298 50.5073 34.0373 53.2046 29.217 58.0662C24.3967 62.9279 21.3967 69.6027 20.8059 76.7806H20.5346V82.6791H20.8743C21.6045 89.7232 24.6558 96.225 29.4473 100.947C34.2389 105.669 40.4361 108.281 46.8592 108.286C53.8008 108.286 60.458 105.242 65.3665 99.8237C70.2749 94.4056 73.0324 87.0572 73.0325 79.3949C73.0325 75.6008 72.3555 71.844 71.0402 68.3388C69.7249 64.8335 67.797 61.6486 65.3666 58.9658C62.9361 56.283 60.0508 54.1549 56.8753 52.703C53.6998 51.2511 50.2964 50.5038 46.8592 50.5038V50.5038ZM46.8592 56.1274C52.4496 56.1274 57.8111 58.5788 61.7641 62.9423C65.7171 67.3058 67.9378 73.224 67.9378 79.3949C67.9377 85.5657 65.717 91.4838 61.764 95.8472C57.811 100.211 52.4496 102.662 46.8592 102.662C41.7868 102.658 36.8859 100.635 33.0555 96.9648C29.2252 93.2942 26.7224 88.2221 26.0064 82.6791H26.1073V76.7806H25.9307C26.5124 71.1017 28.9672 65.8578 32.8271 62.0487C36.6869 58.2397 41.6818 56.1319 46.8592 56.1274V56.1274Z" fill="#E9723D"/>
<path opacity="0.985737" d="M56.8776 92.8099H47.0547V98.7396H56.8776V92.8099Z" fill="#F4D75E"/>
<path opacity="0.985737" d="M56.9137 98.4416L56.7974 60.3575L51.5126 60.2251L51.6289 98.3093L56.9137 98.4416Z" fill="#F4D75E"/>
<path opacity="0.985737" d="M61.2876 60.2253H47.1387V66.1551H61.2876V60.2253Z" fill="#F4D75E"/>
<path opacity="0.985737" d="M57.0537 98.4416L80.6897 64.4666L76.0702 60.2017L52.4342 94.1767L57.0537 98.4416Z" fill="#F4D75E"/>
<path opacity="0.985737" d="M85.893 60.2018H76.0701V66.1316H85.893V60.2018Z" fill="#F4D75E"/>
<path opacity="0.985737" d="M81.4712 98.4182L81.3549 60.334L76.0701 60.2017L76.1863 98.2859L81.4712 98.4182Z" fill="#F4D75E"/>
<path opacity="0.985737" d="M85.8451 92.3828H71.6963V98.3126H85.8451V92.3828Z" fill="#F4D75E"/>
<path d="M42.4409 2.8493C42.4409 2.8493 39.681 6.79949 39.9515 9.02047C40.2655 11.5974 44.4866 15.378 44.4866 15.378C44.4866 15.378 49.0649 12.9546 50.7078 11.0001C52.1886 9.23857 51.4448 3.78213 51.4448 3.78213C51.4448 3.78213 50.4472 7.42331 49.0455 8.78077C48.3264 9.4773 46.8478 9.67376 46.8478 9.67376C46.8478 9.67376 46.8035 7.44682 48.069 5.1346C49.3354 2.8206 54.2039 0.406036 54.2039 0.406036C54.2039 0.406036 47.9198 1.45749 45.441 4.19354C44.6731 5.04103 42.6174 6.96498 42.6174 6.96498L42.4409 2.8493Z" fill="#E9723D"/>
<path d="M62.4341 32.4409C65.0929 32.5166 67.2746 30.4081 67.3071 27.7314C67.3397 25.0547 65.2107 22.8234 62.5519 22.7477C59.8931 22.672 57.7113 24.7806 57.6788 27.4573C57.6463 30.134 59.7753 32.3652 62.4341 32.4409Z" fill="#0B7FAB"/>
<path d="M57.3174 34.0322C59.7139 32.8293 63.2775 34.5826 64.5359 37.0478C66.0063 39.9283 62.6207 45.3094 62.7383 48.5443C62.8863 52.6146 63.3637 58.0471 63.3637 58.0471C63.3637 58.0471 55.4219 49.1448 50.3485 52.4504C41.5443 58.1868 51.8996 83.5022 51.8996 83.5022C51.8996 83.5022 35.7588 55.5201 45.8437 45.8759C49.0471 42.8126 55.0648 45.6718 55.0648 45.6718C55.0648 45.6718 54.1403 35.6269 57.3174 34.0322Z" fill="#0B7FAB"/>
<path d="M45.1066 15.926C45.1066 15.926 46.1777 25.8608 49.3086 29.3096C51.8453 32.1039 59.6557 33.6142 59.6557 33.6142C59.7026 33.4737 56.0605 37.3995 55.3765 39.4486C55.3765 39.4486 48.4751 35.0583 46.1211 30.9113C42.6095 24.7248 45.1066 15.926 45.1066 15.926V15.926Z" fill="#0B7FAB"/>
<path opacity="0.985737" d="M26.2023 60.8042H4V66.1692H26.2023V60.8042Z" fill="#F4D75E"/>
<path opacity="0.985737" d="M27.4284 93.4915H4V98.8564H27.4284V93.4915Z" fill="#F4D75E"/>
<path opacity="0.985737" d="M11.2485 60.8192V98.8556H16.8437V60.8192H11.2485Z" fill="#F4D75E"/>
<path d="M25.3549 60.7269C23.7288 60.7268 22.1187 61.0066 20.6165 61.5501C19.1142 62.0936 17.7492 62.8902 16.5995 63.8945C15.4497 64.8988 14.5376 66.0911 13.9154 67.4033C13.2931 68.7154 12.9729 70.1218 12.9729 71.5421C12.9744 71.6041 12.9766 71.6662 12.9794 71.7282C13.0042 70.8799 13.3582 70.0455 14.0159 69.2855C14.6735 68.5256 15.6182 67.8591 16.7814 67.3346V66.1783H21.1456C21.1696 66.1735 21.1936 66.1688 21.2177 66.1641H27.3392C29.1649 66.5542 30.7469 67.2796 31.8671 68.2403C32.9874 69.201 33.5908 70.3496 33.5941 71.5279C33.5837 72.6593 33.0201 73.7632 31.9753 74.6987C30.9304 75.6342 29.4517 76.359 27.7276 76.7806H26.1073V76.8083V77.4003V82.3367C29.2549 82.1693 32.2108 80.9591 34.3719 78.9532C36.533 76.9472 37.7364 74.2966 37.7366 71.5421C37.7366 68.6738 36.4321 65.9229 34.1101 63.8946C31.7881 61.8664 28.6387 60.7269 25.3549 60.7269H25.3549ZM12.9915 72.0761C13.0937 73.728 13.6284 75.3375 14.5545 76.7806H13.2717V77.5219H15.0557C16.3978 79.285 18.3029 80.6652 20.5346 81.4914V77.4003V76.8083V76.7806H18.0676H16.7814V76.2825C15.6618 75.7774 14.7441 75.1406 14.0903 74.415C13.4365 73.6894 13.0618 72.8918 12.9915 72.0761V72.0761Z" fill="#F4D75E"/>
<path d="M27.1544 77.3598C26.8048 77.3604 26.4555 77.3739 26.1073 77.4004V82.198V82.6792C26.1445 82.6784 26.1817 82.6778 26.2189 82.6774C27.2918 82.6773 28.3541 82.8185 29.3454 83.0928C30.3366 83.367 31.2373 83.769 31.9959 84.2758C32.7546 84.7826 33.3563 85.3843 33.7669 86.0464C34.1775 86.7086 34.3888 87.4183 34.3887 88.135C34.3875 89.2785 33.8486 90.393 32.848 91.3209C31.8474 92.2488 30.4358 92.9432 28.8124 93.3063H23.6287H4.11314H4.05343H4V93.5281H4.05343V95.6224H18.3847C19.5287 96.6387 20.8932 97.4467 22.3987 97.9993C23.9042 98.5519 25.5208 98.8381 27.1544 98.8413C28.7727 98.8413 30.3753 98.5635 31.8705 98.0237C33.3657 97.4839 34.7242 96.6927 35.8686 95.6953C37.0129 94.6979 37.9207 93.5138 38.54 92.2107C39.1593 90.9075 39.478 89.5108 39.4779 88.1003C39.4779 85.2517 38.1795 82.5198 35.8684 80.5056C33.5572 78.4914 30.4227 77.3598 27.1544 77.3598V77.3598ZM20.5346 79.0433C18.8752 79.9644 17.4928 81.2184 16.5032 82.7005C16.895 82.6915 17.2875 82.6868 17.6802 82.6865C18.0871 82.6865 18.4938 82.6912 18.8996 82.7005H20.5346V82.198V79.0433Z" fill="#F4D75E"/>
<path d="M20.8738 76.7806H20.5346V82.6801H20.8738V76.7806Z" fill="#F4D75E"/>
<path opacity="0.985737" d="M11.8975 77.3598V82.5516H20.5346V77.3598H11.8975ZM26.1073 77.3598V82.5516H27.1544V77.3598H26.1073Z" fill="#F4D75E"/>
<path d="M26.1069 76.7806H25.946V82.6801H26.1069V76.7806Z" fill="#F4D75E"/>
</g>
<defs>
<filter id="filter0_d_977_409" x="0" y="0.406036" width="89.893" height="115.88" filterUnits="userSpaceOnUse" color-interpolation-filters="sRGB">
<feFlood flood-opacity="0" result="BackgroundImageFix"/>
<feColorMatrix in="SourceAlpha" type="matrix" values="0 0 0 0 0 0 0 0 0 0 0 0 0 0 0 0 0 0 127 0" result="hardAlpha"/>
<feOffset dy="4"/>
<feGaussianBlur stdDeviation="2"/>
<feComposite in2="hardAlpha" operator="out"/>
<feColorMatrix type="matrix" values="0 0 0 0 0 0 0 0 0 0 0 0 0 0 0 0 0 0 0.25 0"/>
<feBlend mode="normal" in2="BackgroundImageFix" result="effect1_dropShadow_977_409"/>
<feBlend mode="normal" in="SourceGraphic" in2="effect1_dropShadow_977_409" result="shape"/>
</filter>
</defs>
</svg>
