<svg width="36" height="24" viewBox="0 0 36 24" fill="none" xmlns="http://www.w3.org/2000/svg">
<path d="M35.7899 10.9877C30.138 3.50716 24.0611 -0.171119 17.7272 0.00611079C7.50846 0.318055 0.474233 10.5958 0.179655 11.0328C0.166052 11.0532 0.156671 11.0758 0.144944 11.0973C0.135093 11.1137 0.126181 11.1306 0.117268 11.1485C0.0961601 11.1895 0.0783353 11.2305 0.0633249 11.273C0.0562888 11.2935 0.0501909 11.314 0.0440929 11.3345C0.0323661 11.3749 0.0225155 11.4154 0.0154794 11.4564C0.0107887 11.483 0.00797425 11.5096 0.00562888 11.5368C0.00234537 11.5716 0 11.6064 0 11.6418C0 11.6766 0.00234537 11.7115 0.00562888 11.7463C0.00844333 11.7734 0.0112578 11.7996 0.0154794 11.8267C0.0225155 11.8677 0.0323661 11.9081 0.0440929 11.9486C0.0501909 11.9691 0.0562888 11.9896 0.0633249 12.0101C0.0783353 12.0526 0.0966292 12.0936 0.117268 12.1345C0.126181 12.152 0.134624 12.1684 0.144944 12.1858C0.156671 12.2068 0.166052 12.2298 0.179655 12.2503C0.474233 12.6878 7.50846 22.965 17.7272 23.277C17.8853 23.2816 18.0424 23.2841 18.1996 23.2841C24.3627 23.2841 30.2782 19.5895 35.7899 12.2954C35.9348 12.1038 36.0005 11.8718 36 11.6418C36.0005 11.4113 35.9348 11.1793 35.7899 10.9877ZM17.791 21.2296C9.84586 20.9935 3.77464 13.7936 2.13429 11.6418C3.77464 9.48994 9.84539 2.28961 17.791 2.05347C23.3364 1.89519 28.7228 5.12118 33.8338 11.6418C28.7233 18.1629 23.342 21.4048 17.791 21.2296Z" fill="#FF0000"/>
<path d="M18.4698 4.89734C15.0638 4.89734 12.2935 7.92253 12.2935 11.6413C12.2935 15.3605 15.0638 18.3857 18.4698 18.3857C21.8757 18.3857 24.6461 15.3605 24.6461 11.6413C24.6461 7.92253 21.8757 4.89734 18.4698 4.89734ZM18.4698 16.3368C16.0986 16.3368 14.1698 14.2306 14.1698 11.6413C14.1698 9.0525 16.0986 6.94623 18.4698 6.94623C20.8409 6.94623 22.7698 9.0525 22.7698 11.6413C22.7698 14.2301 20.8409 16.3368 18.4698 16.3368Z" fill="#FF0000"/>
</svg>
