<svg width="30" height="30" viewBox="0 0 30 30" fill="none" xmlns="http://www.w3.org/2000/svg">
<g clip-path="url(#clip0_1028_42)">
<path d="M29.0505 27.153L27 21H24.75L25.9995 27H4.00049L5.24999 21H2.99999L0.947991 27.153C0.427491 28.719 1.34999 30 2.99999 30H27C28.65 30 29.5725 28.719 29.0505 27.153ZM22.5 7.5C22.5 5.51088 21.7098 3.60322 20.3033 2.1967C18.8968 0.790176 16.9891 0 15 0C13.0109 0 11.1032 0.790176 9.69669 2.1967C8.29017 3.60322 7.49999 5.51088 7.49999 7.5C7.49999 14.6625 15 22.5 15 22.5C15 22.5 22.5 14.6625 22.5 7.5ZM10.95 7.59C10.95 5.3535 12.762 3.5415 15 3.5415C16.0739 3.5415 17.1039 3.96812 17.8632 4.7275C18.6226 5.48688 19.0492 6.51682 19.0492 7.59075C19.0492 8.66468 18.6226 9.69462 17.8632 10.454C17.1039 11.2134 16.0739 11.64 15 11.64C13.9259 11.64 12.8957 11.2133 12.1362 10.4538C11.3767 9.69426 10.95 8.66413 10.95 7.59V7.59Z" fill="black"/>
</g>
<defs>
<clipPath id="clip0_1028_42">
<rect width="30" height="30" fill="white"/>
</clipPath>
</defs>
</svg>
