<svg width="25" height="25" viewBox="0 0 25 25" fill="none" xmlns="http://www.w3.org/2000/svg">
<path d="M24.4393 19.7571L20.5785 15.8959C19.8096 15.1301 18.536 15.1535 17.7402 15.9493L15.7953 17.8942C15.6725 17.8262 15.5453 17.7555 15.4115 17.6805C14.1833 16.9999 12.5021 16.0672 10.7329 14.2967C8.95876 12.5227 8.02474 10.8388 7.34234 9.60972C7.2699 9.47941 7.20104 9.35404 7.13305 9.23483L8.43851 7.9311L9.08019 7.28856C9.87736 6.49139 9.89945 5.21814 9.13189 4.45021L5.27106 0.588512C4.504 -0.178547 3.22988 -0.155224 2.43272 0.641945L1.34457 1.73626L1.37455 1.76588C1.00978 2.23135 0.704612 2.76839 0.478048 3.34738C0.26876 3.89849 0.138449 4.42455 0.0788467 4.95135C-0.430798 9.17782 1.50042 13.0403 6.74175 18.2821C13.9867 25.5266 19.8256 24.9794 20.0773 24.9525C20.6263 24.8871 21.1517 24.7559 21.6862 24.5484C22.2603 24.324 22.7969 24.0197 23.2619 23.6558L23.2857 23.6765L24.388 22.5972C25.1835 21.8001 25.2064 20.5269 24.4393 19.7571ZM23.5304 21.7388L23.0446 22.2237L22.8511 22.4097C22.5464 22.7043 22.019 23.118 21.2489 23.4193C20.8116 23.5876 20.3806 23.6957 19.942 23.7479C19.8869 23.7532 14.3952 24.2217 7.59839 17.4254C1.81929 11.6466 0.893168 8.31661 1.28139 5.09141C1.33001 4.66394 1.43724 4.23377 1.60865 3.78422C1.91246 3.00963 2.32585 2.48271 2.61819 2.17754L3.28986 1.49921C3.61354 1.17467 4.11837 1.14986 4.41428 1.44578L8.275 5.30649C8.57042 5.60278 8.5471 6.10761 8.22292 6.43314L5.61559 9.03788L5.85622 9.44289C5.98999 9.66859 6.13141 9.92156 6.28245 10.1964C6.99965 11.4899 7.98093 13.2604 9.876 15.1537C11.7661 17.0449 13.5341 18.0253 14.8236 18.7406C15.1023 18.8948 15.3567 19.0366 15.585 19.1725L15.9909 19.4132L18.5965 16.8067C18.9215 16.483 19.4281 16.4591 19.724 16.7541L23.583 20.614C23.878 20.9098 23.8546 21.4146 23.5304 21.7388Z" fill="#010002"/>
</svg>
